<?xml version="1.0" encoding="UTF-8" standalone="no"?>
<!-- Uploaded to: SVG Repo, www.svgrepo.com, Generator: SVG Repo Mixer Tools -->

<svg
   width="700.00024"
   height="700.00977"
   viewBox="0 0 21.000007 21.000293"
   fill="none"
   version="1.1"
   id="svg142"
   sodipodi:docname="app_logo.svg"
   inkscape:version="1.2.2 (b0a84865, 2022-12-01)"
   xmlns:inkscape="http://www.inkscape.org/namespaces/inkscape"
   xmlns:sodipodi="http://sodipodi.sourceforge.net/DTD/sodipodi-0.dtd"
   xmlns="http://www.w3.org/2000/svg"
   xmlns:svg="http://www.w3.org/2000/svg">
  <defs
     id="defs146" />
  <sodipodi:namedview
     id="namedview144"
     pagecolor="#ffffff"
     bordercolor="#000000"
     borderopacity="0.25"
     inkscape:showpageshadow="2"
     inkscape:pageopacity="0.0"
     inkscape:pagecheckerboard="0"
     inkscape:deskcolor="#d1d1d1"
     showgrid="false"
     inkscape:zoom="0.38758291"
     inkscape:cx="-127.71461"
     inkscape:cy="207.6975"
     inkscape:window-width="1390"
     inkscape:window-height="1027"
     inkscape:window-x="1970"
     inkscape:window-y="25"
     inkscape:window-maximized="0"
     inkscape:current-layer="svg142" />
  <path
     opacity="0.5"
     d="m 0.50000324,10.500003 c 0,-4.7140498 0,-7.0710698 1.46446996,-8.5355298 1.46446,-1.46446996 3.82148,-1.46446996 8.5355298,-1.46446996 4.714,0 7.0711,0 8.5355,1.46446996 1.4645,1.46446 1.4645,3.82148 1.4645,8.5355298 0,4.714 0,7.0711 -1.4645,8.5355 -0.138192,0.138202 -0.284333,0.263361 -0.439655,0.37671 -1.490602,1.08779 -3.826694,1.08779 -8.095845,1.08779 -4.7140498,0 -7.0710698,0 -8.5355298,-1.4645 -1.46446996,-1.4644 -1.46446996,-3.8215 -1.46446996,-8.5355 z"
     fill="#1C274C"
     id="path132"
     style="opacity:1;fill:#fe8c7c;fill-opacity:1;stroke:#fe8c7c;stroke-opacity:1"
     sodipodi:nodetypes="scscscsscs" />
  <path
     d="m 9.0431032,6.0172432 c 0.2857,-0.29994 0.2741,-0.77468 -0.0259,-1.06034 -0.2999,-0.28567 -0.77464,-0.27409 -1.0603,0.02586 l -2.31404,2.42974 -0.59976,-0.62974 c -0.28566,-0.29995 -0.76039,-0.31153 -1.06034,-0.02586 -0.29995,0.28566 -0.31153,0.76039 -0.02586,1.06034 l 1.14286,1.19996 c 0.14155,0.1487 0.33784,0.2328 0.5431,0.2328 0.20526,0 0.40154,-0.0841 0.5431,-0.2328 z"
     fill="#1C274C"
     id="path134"
     style="fill:#3a82e2;fill-opacity:1" />
  <path
     d="m 11.500003,6.7500032 c -0.4142,0 -0.75,0.33579 -0.75,0.75 0,0.41422 0.3358,0.75 0.75,0.75 h 5 c 0.4142,0 0.75,-0.33578 0.75,-0.75 0,-0.41421 -0.3358,-0.75 -0.75,-0.75 z"
     fill="#1C274C"
     id="path136"
     style="fill:#3a82e2;fill-opacity:1" />
  <path
     d="m 9.0431032,13.017203 c 0.2857,-0.2999 0.2741,-0.7746 -0.0259,-1.0603 -0.2999,-0.2857 -0.77464,-0.2741 -1.0603,0.0259 l -2.31404,2.4297 -0.59976,-0.6297 c -0.28566,-0.3 -0.76039,-0.3116 -1.06034,-0.0259 -0.29995,0.2857 -0.31153,0.7604 -0.02586,1.0603 l 1.14286,1.2 c 0.14155,0.1487 0.33784,0.2328 0.5431,0.2328 0.20526,0 0.40154,-0.0841 0.5431,-0.2328 z"
     fill="#1C274C"
     id="path138"
     style="fill:#3a82e2;fill-opacity:1" />
  <path
     d="m 11.500003,13.750003 c -0.4142,0 -0.75,0.3358 -0.75,0.75 0,0.4142 0.3358,0.75 0.75,0.75 h 5 c 0.4142,0 0.75,-0.3358 0.75,-0.75 0,-0.4142 -0.3358,-0.75 -0.75,-0.75 z"
     fill="#1C274C"
     id="path140"
     style="fill:#3a82e2;fill-opacity:1" />
</svg>
